<svg xmlns="http://www.w3.org/2000/svg"  viewBox="0 0 100 100" width="100px" height="100px"><path fill="#f15b6c" d="M71.543,81.5H28.457C23.234,81.5,19,77.266,19,72.043V29.404C19,23.382,23.882,18.5,29.904,18.5	h38.872C75.527,18.5,81,23.973,81,30.723v41.319C81,77.266,76.766,81.5,71.543,81.5z"/><path fill="#1f212b" d="M69.961,17.921h-39c-7.168,0-13,5.832-13,13v39c0,7.168,5.832,13,13,13h39c7.168,0,13-5.832,13-13	v-39C82.961,23.753,77.129,17.921,69.961,17.921z M80.961,69.921c0,6.065-4.935,11-11,11h-39c-6.065,0-11-4.935-11-11v-39	c0-6.065,4.935-11,11-11h39c6.065,0,11,4.935,11,11V69.921z"/><path fill="#fdfcee" d="M68.394,63.634h-3.06v-2.376c-0.648,0.769-1.428,1.416-2.34,1.944	c-0.912,0.527-2.016,0.792-3.312,0.792c-1.008,0-1.92-0.217-2.736-0.649c-0.816-0.434-1.524-1.046-2.124-1.84	c-0.6-0.793-1.062-1.731-1.386-2.813c-0.324-1.083-0.486-2.272-0.486-3.571c0-1.442,0.222-2.735,0.666-3.878	c0.444-1.142,1.062-2.104,1.854-2.886c0.792-0.781,1.722-1.377,2.79-1.785c1.067-0.409,2.226-0.613,3.474-0.613	c0.696,0,1.314,0.043,1.854,0.128s1.062,0.2,1.566,0.347v-8.215h3.24C68.394,38.219,68.394,63.634,68.394,63.634z M60.582,61.366	c1.032,0,1.932-0.251,2.7-0.754c0.768-0.503,1.392-1.041,1.872-1.616v-9.943c-0.408-0.168-0.876-0.287-1.404-0.359	c-0.528-0.071-1.08-0.107-1.656-0.107c-1.8,0-3.234,0.562-4.302,1.688c-1.068,1.125-1.602,2.74-1.602,4.846	c0,1.892,0.354,3.405,1.062,4.542C57.96,60.798,59.07,61.366,60.582,61.366z"/><path fill="#1f212b" d="M77.461,47.921c-0.276,0-0.5,0.224-0.5,0.5v18.663c0,5.424-4.413,9.837-9.837,9.837H33.798	c-5.424,0-9.837-4.413-9.837-9.837V33.758c0-5.424,4.413-9.837,9.837-9.837h33.663c0.276,0,0.5-0.224,0.5-0.5s-0.224-0.5-0.5-0.5	H33.798c-5.976,0-10.837,4.861-10.837,10.837v33.326c0,5.976,4.861,10.837,10.837,10.837h33.326c5.976,0,10.837-4.861,10.837-10.837	V48.421C77.961,48.145,77.737,47.921,77.461,47.921z M77.461,40.921c-0.276,0-0.5,0.224-0.5,0.5v4c0,0.276,0.224,0.5,0.5,0.5	s0.5-0.224,0.5-0.5v-4C77.961,41.145,77.737,40.921,77.461,40.921z M76.961,37.421v2c0,0.276,0.224,0.5,0.5,0.5s0.5-0.224,0.5-0.5	v-2c0-0.276-0.224-0.5-0.5-0.5S76.961,37.145,76.961,37.421z"/><path fill="#1f212b" d="M65.561,59.274c0.076-0.091,0.118-0.205,0.118-0.323v-9.824c0-0.203-0.123-0.387-0.312-0.463	c-0.444-0.181-0.957-0.312-1.526-0.389c-0.547-0.072-1.127-0.109-1.722-0.109c-1.934,0-3.502,0.612-4.662,1.82	c-1.156,1.202-1.742,2.93-1.742,5.134c0,1.956,0.383,3.556,1.139,4.754c0.802,1.272,2.064,1.918,3.752,1.918	c1.126,0,2.126-0.277,2.972-0.824C64.385,60.445,65.052,59.875,65.561,59.274z M64.679,58.763c-0.43,0.478-0.982,0.937-1.644,1.364	c-0.681,0.44-1.499,0.664-2.429,0.664c-1.341,0-2.292-0.475-2.907-1.451c-0.653-1.036-0.985-2.456-0.985-4.221	c0-1.938,0.492-3.431,1.463-4.44c0.978-1.019,2.267-1.514,3.941-1.514c0.551,0,1.086,0.034,1.589,0.101	c0.354,0.048,0.679,0.119,0.971,0.212v9.285H64.679z"/><path fill="#1f212b" d="M65.36,64.033h3.06c0.276,0,0.5-0.224,0.5-0.5V38.421c0-0.276-0.224-0.5-0.5-0.5h-3.24	c-0.276,0-0.5,0.224-0.5,0.5v7.471c-0.324-0.075-0.654-0.14-0.989-0.191c-0.562-0.088-1.212-0.132-1.931-0.132	c-1.305,0-2.534,0.215-3.651,0.638c-1.126,0.425-2.123,1.056-2.962,1.874c-0.84,0.819-1.502,1.838-1.97,3.025	c-0.465,1.182-0.701,2.532-0.701,4.015c0,1.325,0.171,2.562,0.507,3.674c0.34,1.122,0.834,2.11,1.468,2.938	c0.64,0.837,1.41,1.495,2.289,1.956c0.884,0.464,1.883,0.699,2.968,0.699c1.376,0,2.574-0.285,3.561-0.849	c0.579-0.331,1.111-0.711,1.592-1.136v1.129C64.86,63.809,65.083,64.033,65.36,64.033z M62.771,62.671	c-0.833,0.476-1.864,0.717-3.064,0.717c-0.922,0-1.764-0.196-2.503-0.584c-0.75-0.394-1.409-0.959-1.959-1.679	c-0.561-0.732-1-1.614-1.305-2.621c-0.308-1.019-0.464-2.156-0.464-3.384c0-1.356,0.212-2.584,0.631-3.648	c0.416-1.056,1-1.956,1.738-2.676c0.74-0.722,1.621-1.278,2.618-1.654c1.004-0.381,2.113-0.573,3.297-0.573	c0.667,0,1.265,0.04,1.777,0.12c0.517,0.08,1.023,0.191,1.505,0.329c0.152,0.042,0.313,0.014,0.438-0.081s0.199-0.242,0.199-0.399	v-7.616h2.24v24.111h-2.06v-1.848c0-0.209-0.13-0.396-0.327-0.469c-0.197-0.074-0.417-0.016-0.553,0.144	C64.372,61.571,63.629,62.18,62.771,62.671z"/><polygon fill="#fdfcee" points="51.442,34.076 47.99,34.076 41.213,45.808 34.437,34.076 30.984,34.076 39.48,48.81 30.984,63.518 34.465,63.521 41.213,51.816 47.962,63.521 51.442,63.518 42.947,48.81"/><path fill="#1f212b" d="M47.962,64.021c-0.179,0-0.344-0.095-0.434-0.25l-6.315-10.954l-6.314,10.953	c-0.09,0.155-0.255,0.25-0.434,0.25c0,0,0,0-0.001,0l-3.48-0.003c-0.178,0-0.343-0.096-0.433-0.25	c-0.089-0.154-0.089-0.345,0.001-0.5l8.351-14.458l-8.352-14.483c-0.089-0.155-0.089-0.346,0.001-0.5	c0.089-0.155,0.254-0.25,0.433-0.25h3.453c0.179,0,0.344,0.095,0.433,0.25l6.343,10.982l6.344-10.982	c0.089-0.155,0.254-0.25,0.433-0.25h3.453c0.179,0,0.344,0.095,0.433,0.25c0.09,0.154,0.09,0.345,0.001,0.5L43.524,48.81	l8.351,14.458c0.09,0.155,0.09,0.345,0.001,0.5c-0.09,0.155-0.255,0.25-0.434,0.25L47.962,64.021L47.962,64.021z M41.213,51.316	c0.179,0,0.344,0.095,0.434,0.25l6.604,11.454l2.326-0.002L42.515,49.06c-0.09-0.155-0.09-0.345-0.001-0.5l8.063-13.984h-2.299	l-6.633,11.482c-0.178,0.31-0.688,0.31-0.865,0l-6.632-11.482H31.85l8.063,13.984c0.089,0.154,0.089,0.345-0.001,0.5L31.85,63.019	l2.326,0.002l6.604-11.454C40.869,51.412,41.034,51.316,41.213,51.316z"/></svg>